<svg id="visual" viewBox="0 0 960 540" width="960" height="540" xmlns="http://www.w3.org/2000/svg" xmlns:xlink="http://www.w3.org/1999/xlink" version="1.1"><rect x="0" y="0" width="960" height="540" fill="#1f2030"></rect><path d="M0 360L22.8 372.2C45.7 384.3 91.3 408.7 137 413.5C182.7 418.3 228.3 403.7 274 392.2C319.7 380.7 365.3 372.3 411.2 359.8C457 347.3 503 330.7 548.8 322.8C594.7 315 640.3 316 686 309.3C731.7 302.7 777.3 288.3 823 291.2C868.7 294 914.3 314 937.2 324L960 334L960 0L937.2 0C914.3 0 868.7 0 823 0C777.3 0 731.7 0 686 0C640.3 0 594.7 0 548.8 0C503 0 457 0 411.2 0C365.3 0 319.7 0 274 0C228.3 0 182.7 0 137 0C91.3 0 45.7 0 22.8 0L0 0Z" fill="#ba8de4"></path><path d="M0 334L22.8 319.3C45.7 304.7 91.3 275.3 137 256.2C182.7 237 228.3 228 274 227.5C319.7 227 365.3 235 411.2 260.2C457 285.3 503 327.7 548.8 328.2C594.7 328.7 640.3 287.3 686 286.3C731.7 285.3 777.3 324.7 823 320.2C868.7 315.7 914.3 267.3 937.2 243.2L960 219L960 0L937.2 0C914.3 0 868.7 0 823 0C777.3 0 731.7 0 686 0C640.3 0 594.7 0 548.8 0C503 0 457 0 411.2 0C365.3 0 319.7 0 274 0C228.3 0 182.7 0 137 0C91.3 0 45.7 0 22.8 0L0 0Z" fill="#8f6daf"></path><path d="M0 220L22.8 216.8C45.7 213.7 91.3 207.3 137 214.2C182.7 221 228.3 241 274 251.8C319.7 262.7 365.3 264.3 411.2 268.8C457 273.3 503 280.7 548.8 266C594.7 251.3 640.3 214.7 686 198.7C731.7 182.7 777.3 187.3 823 189.8C868.7 192.3 914.3 192.7 937.2 192.8L960 193L960 0L937.2 0C914.3 0 868.7 0 823 0C777.3 0 731.7 0 686 0C640.3 0 594.7 0 548.8 0C503 0 457 0 411.2 0C365.3 0 319.7 0 274 0C228.3 0 182.7 0 137 0C91.3 0 45.7 0 22.8 0L0 0Z" fill="#664e7d"></path><path d="M0 201L22.8 201.5C45.7 202 91.3 203 137 189.8C182.7 176.7 228.3 149.3 274 149.2C319.7 149 365.3 176 411.2 175.5C457 175 503 147 548.8 140.3C594.7 133.7 640.3 148.3 686 149.3C731.7 150.3 777.3 137.7 823 145C868.7 152.3 914.3 179.7 937.2 193.3L960 207L960 0L937.2 0C914.3 0 868.7 0 823 0C777.3 0 731.7 0 686 0C640.3 0 594.7 0 548.8 0C503 0 457 0 411.2 0C365.3 0 319.7 0 274 0C228.3 0 182.7 0 137 0C91.3 0 45.7 0 22.8 0L0 0Z" fill="#40314e"></path><path d="M0 72L22.8 69C45.7 66 91.3 60 137 59.3C182.7 58.7 228.3 63.3 274 76C319.7 88.7 365.3 109.3 411.2 116.8C457 124.3 503 118.7 548.8 111C594.7 103.3 640.3 93.7 686 91.5C731.7 89.3 777.3 94.7 823 92.8C868.7 91 914.3 82 937.2 77.5L960 73L960 0L937.2 0C914.3 0 868.7 0 823 0C777.3 0 731.7 0 686 0C640.3 0 594.7 0 548.8 0C503 0 457 0 411.2 0C365.3 0 319.7 0 274 0C228.3 0 182.7 0 137 0C91.3 0 45.7 0 22.8 0L0 0Z" fill="#1d1624"></path></svg>