<svg id="visual" viewBox="0 0 900 600" width="900" height="600" xmlns="http://www.w3.org/2000/svg" xmlns:xlink="http://www.w3.org/1999/xlink" version="1.1"><rect x="0" y="0" width="900" height="600" fill="#1f2030"></rect><path d="M0 219L15 223C30 227 60 235 90 240C120 245 150 247 180 241.7C210 236.3 240 223.7 270 233.8C300 244 330 277 360 289.7C390 302.3 420 294.7 450 287.3C480 280 510 273 540 270.3C570 267.7 600 269.3 630 277.5C660 285.7 690 300.3 720 295.8C750 291.3 780 267.7 810 253C840 238.3 870 232.7 885 229.8L900 227L900 601L885 601C870 601 840 601 810 601C780 601 750 601 720 601C690 601 660 601 630 601C600 601 570 601 540 601C510 601 480 601 450 601C420 601 390 601 360 601C330 601 300 601 270 601C240 601 210 601 180 601C150 601 120 601 90 601C60 601 30 601 15 601L0 601Z" fill="#ba8de4"></path><path d="M0 304L15 309.2C30 314.3 60 324.7 90 328.5C120 332.3 150 329.7 180 331.5C210 333.3 240 339.7 270 351.5C300 363.3 330 380.7 360 385.2C390 389.7 420 381.3 450 377.7C480 374 510 375 540 367.5C570 360 600 344 630 326.2C660 308.3 690 288.7 720 280C750 271.3 780 273.7 810 285C840 296.3 870 316.7 885 326.8L900 337L900 601L885 601C870 601 840 601 810 601C780 601 750 601 720 601C690 601 660 601 630 601C600 601 570 601 540 601C510 601 480 601 450 601C420 601 390 601 360 601C330 601 300 601 270 601C240 601 210 601 180 601C150 601 120 601 90 601C60 601 30 601 15 601L0 601Z" fill="#8f6daf"></path><path d="M0 363L15 367.5C30 372 60 381 90 384.5C120 388 150 386 180 382.5C210 379 240 374 270 386.5C300 399 330 429 360 427.5C390 426 420 393 450 380C480 367 510 374 540 373.7C570 373.3 600 365.7 630 361.5C660 357.3 690 356.7 720 373.3C750 390 780 424 810 421.2C840 418.3 870 378.7 885 358.8L900 339L900 601L885 601C870 601 840 601 810 601C780 601 750 601 720 601C690 601 660 601 630 601C600 601 570 601 540 601C510 601 480 601 450 601C420 601 390 601 360 601C330 601 300 601 270 601C240 601 210 601 180 601C150 601 120 601 90 601C60 601 30 601 15 601L0 601Z" fill="#664e7d"></path><path d="M0 466L15 456.8C30 447.7 60 429.3 90 427.8C120 426.3 150 441.7 180 445C210 448.3 240 439.7 270 437.8C300 436 330 441 360 451.3C390 461.7 420 477.3 450 487C480 496.7 510 500.3 540 500.2C570 500 600 496 630 486.5C660 477 690 462 720 460.3C750 458.7 780 470.3 810 466.3C840 462.3 870 442.7 885 432.8L900 423L900 601L885 601C870 601 840 601 810 601C780 601 750 601 720 601C690 601 660 601 630 601C600 601 570 601 540 601C510 601 480 601 450 601C420 601 390 601 360 601C330 601 300 601 270 601C240 601 210 601 180 601C150 601 120 601 90 601C60 601 30 601 15 601L0 601Z" fill="#40314e"></path><path d="M0 481L15 487C30 493 60 505 90 506.3C120 507.7 150 498.3 180 494C210 489.7 240 490.3 270 491.7C300 493 330 495 360 498.2C390 501.3 420 505.7 450 515.7C480 525.7 510 541.3 540 545.2C570 549 600 541 630 529.7C660 518.3 690 503.7 720 502.3C750 501 780 513 810 516C840 519 870 513 885 510L900 507L900 601L885 601C870 601 840 601 810 601C780 601 750 601 720 601C690 601 660 601 630 601C600 601 570 601 540 601C510 601 480 601 450 601C420 601 390 601 360 601C330 601 300 601 270 601C240 601 210 601 180 601C150 601 120 601 90 601C60 601 30 601 15 601L0 601Z" fill="#1d1624"></path></svg>