<svg id="visual" viewBox="0 0 960 540" width="960" height="540" xmlns="http://www.w3.org/2000/svg" xmlns:xlink="http://www.w3.org/1999/xlink" version="1.1"><rect x="0" y="0" width="960" height="540" fill="#1d1624"></rect><path d="M0 244L22.8 243.8C45.7 243.7 91.3 243.3 137 253.2C182.7 263 228.3 283 274 290.5C319.7 298 365.3 293 411.2 280.3C457 267.7 503 247.3 548.8 234.8C594.7 222.3 640.3 217.7 686 225.2C731.7 232.7 777.3 252.3 823 258.2C868.7 264 914.3 256 937.2 252L960 248L960 541L937.2 541C914.3 541 868.7 541 823 541C777.3 541 731.7 541 686 541C640.3 541 594.7 541 548.8 541C503 541 457 541 411.2 541C365.3 541 319.7 541 274 541C228.3 541 182.7 541 137 541C91.3 541 45.7 541 22.8 541L0 541Z" fill="#1f2030" stroke-linecap="round" stroke-linejoin="miter"></path></svg>