<svg id="visual" viewBox="0 0 900 600" width="900" height="600" xmlns="http://www.w3.org/2000/svg" xmlns:xlink="http://www.w3.org/1999/xlink" version="1.1"><rect x="0" y="0" width="900" height="600" fill="#1f2030"></rect><path d="M0 469L21.5 467.7C43 466.3 86 463.7 128.8 459.7C171.7 455.7 214.3 450.3 257.2 456.3C300 462.3 343 479.7 385.8 468.3C428.7 457 471.3 417 514.2 410.7C557 404.3 600 431.7 642.8 455.8C685.7 480 728.3 501 771.2 494.5C814 488 857 454 878.5 437L900 420L900 601L878.5 601C857 601 814 601 771.2 601C728.3 601 685.7 601 642.8 601C600 601 557 601 514.2 601C471.3 601 428.7 601 385.8 601C343 601 300 601 257.2 601C214.3 601 171.7 601 128.8 601C86 601 43 601 21.5 601L0 601Z" fill="#FFFFFF" stroke-linecap="round" stroke-linejoin="miter"></path></svg>